<svg id="ex8ngrw9bjx1" xmlns="http://www.w3.org/2000/svg" xmlns:xlink="http://www.w3.org/1999/xlink" viewBox="0 0 1840 1840" shape-rendering="geometricPrecision" text-rendering="geometricPrecision"><style><![CDATA[#ex8ngrw9bjx2_tr {animation: ex8ngrw9bjx2_tr__tr 3000ms linear infinite normal forwards}@keyframes ex8ngrw9bjx2_tr__tr { 0% {transform: translate(920px,920px) rotate(0deg)} 100% {transform: translate(920px,920px) rotate(360deg)} }#ex8ngrw9bjx3_tr {animation: ex8ngrw9bjx3_tr__tr 3000ms linear infinite normal forwards}@keyframes ex8ngrw9bjx3_tr__tr { 0% {transform: translate(920px,920px) rotate(0deg)} 100% {transform: translate(920px,920px) rotate(360deg)} }#ex8ngrw9bjx4_tr {animation: ex8ngrw9bjx4_tr__tr 3000ms linear infinite normal forwards}@keyframes ex8ngrw9bjx4_tr__tr { 0% {transform: translate(920px,916px) rotate(0deg)} 100% {transform: translate(920px,916px) rotate(360deg)} }#ex8ngrw9bjx5_tr {animation: ex8ngrw9bjx5_tr__tr 3000ms linear infinite normal forwards}@keyframes ex8ngrw9bjx5_tr__tr { 0% {transform: translate(920px,916px) rotate(0deg)} 100% {transform: translate(920px,916px) rotate(-360deg)} }#ex8ngrw9bjx6_tr {animation: ex8ngrw9bjx6_tr__tr 3000ms linear infinite normal forwards}@keyframes ex8ngrw9bjx6_tr__tr { 0% {transform: translate(920px,916px) rotate(0deg)} 100% {transform: translate(920px,916px) rotate(-360deg)} }#ex8ngrw9bjx7_tr {animation: ex8ngrw9bjx7_tr__tr 3000ms linear infinite normal forwards}@keyframes ex8ngrw9bjx7_tr__tr { 0% {transform: translate(920px,916px) rotate(0deg)} 100% {transform: translate(920px,916px) rotate(-360deg)} }]]></style><defs><linearGradient id="ex8ngrw9bjx3-fill" x1="733" y1="0" x2="733" y2="1466" spreadMethod="pad" gradientUnits="userSpaceOnUse"><stop id="ex8ngrw9bjx3-fill-0" offset="0%" stop-color="rgb(255,90,248)"/><stop id="ex8ngrw9bjx3-fill-1" offset="100%" stop-color="rgba(255,255,255,0)"/></linearGradient><linearGradient id="ex8ngrw9bjx6-stroke" x1="-670.123093" y1="11.612899" x2="698.319015" y2="28.530453" spreadMethod="pad" gradientUnits="userSpaceOnUse"><stop id="ex8ngrw9bjx6-stroke-0" offset="5.729170%" stop-color="rgb(255,61,0)"/><stop id="ex8ngrw9bjx6-stroke-1" offset="19.270800%" stop-color="rgb(255,176,57)"/><stop id="ex8ngrw9bjx6-stroke-2" offset="42.187500%" stop-color="rgb(181,255,60)"/><stop id="ex8ngrw9bjx6-stroke-3" offset="65.104200%" stop-color="rgb(80,192,255)"/><stop id="ex8ngrw9bjx6-stroke-4" offset="81.770800%" stop-color="rgb(169,94,152)"/><stop id="ex8ngrw9bjx6-stroke-5" offset="99.990000%" stop-color="rgb(255,0,0)"/><stop id="ex8ngrw9bjx6-stroke-6" offset="100%" stop-color="rgb(255,0,0)"/></linearGradient><linearGradient id="ex8ngrw9bjx10-fill" x1="947" y1="318" x2="947" y2="1054" spreadMethod="pad" gradientUnits="userSpaceOnUse"><stop id="ex8ngrw9bjx10-fill-0" offset="0%" stop-color="rgb(0,255,194)"/><stop id="ex8ngrw9bjx10-fill-1" offset="100%" stop-color="rgba(255,255,255,0)"/></linearGradient></defs><g id="ex8ngrw9bjx2_tr" transform="translate(920,920) rotate(0)"><rect id="ex8ngrw9bjx2" width="1466" height="1466" rx="386" ry="386" transform="translate(-733,-733)" fill="rgb(143,0,255)" stroke="none" stroke-width="1"/></g><g id="ex8ngrw9bjx3_tr" transform="translate(920,920) rotate(0)"><rect id="ex8ngrw9bjx3" width="1466" height="1466" rx="386" ry="386" transform="translate(-733,-733)" fill="url(#ex8ngrw9bjx3-fill)" stroke="none" stroke-width="1"/></g><g id="ex8ngrw9bjx4_tr" transform="translate(920,916) rotate(0)"><ellipse id="ex8ngrw9bjx4" rx="511" ry="506" transform="translate(0,0)" fill="none" stroke="rgb(255,199,0)" stroke-width="120"/></g><g id="ex8ngrw9bjx5_tr" transform="translate(920,916) rotate(0)"><ellipse id="ex8ngrw9bjx5" rx="511" ry="506" transform="translate(0,0)" fill="none" stroke="rgb(255,122,0)" stroke-width="100"/></g><g id="ex8ngrw9bjx6_tr" transform="translate(920,916) rotate(0)"><ellipse id="ex8ngrw9bjx6" rx="511" ry="506" transform="translate(0,0)" fill="none" stroke="url(#ex8ngrw9bjx6-stroke)" stroke-width="100"/></g><g id="ex8ngrw9bjx7_tr" transform="translate(920,916) rotate(0)"><ellipse id="ex8ngrw9bjx7" rx="511" ry="506" transform="translate(0,0)" fill="none" stroke="rgb(255,255,255)" stroke-width="20"/></g><g id="ex8ngrw9bjx8" transform="matrix(1 0 0 1 187 186.99999999999977)"><path id="ex8ngrw9bjx9" d="M759.431000,1034.830000L506.409000,780.506000C495.944000,769.988000,495.928000,752.996000,506.372000,742.458000L579.382000,668.790000C589.923000,658.155000,607.104000,658.128000,617.678000,668.730000L762.417000,813.865000C772.954000,824.430000,790.062000,824.446000,800.618000,813.901000L1277.910000,337.073000C1288.450000,326.538000,1305.540000,326.542000,1316.080000,337.083000L1387.390000,408.385000C1397.940000,418.938000,1397.930000,436.051000,1387.360000,446.592000L797.641000,1034.900000C787.074000,1045.450000,769.958000,1045.410000,759.431000,1034.830000Z" fill="rgb(0,232,107)" stroke="none" stroke-width="1"/><path id="ex8ngrw9bjx10" d="M759.431000,1034.830000L506.409000,780.506000C495.944000,769.988000,495.928000,752.996000,506.372000,742.458000L579.382000,668.790000C589.923000,658.155000,607.104000,658.128000,617.678000,668.730000L762.417000,813.865000C772.954000,824.430000,790.062000,824.446000,800.618000,813.901000L1277.910000,337.073000C1288.450000,326.538000,1305.540000,326.542000,1316.080000,337.083000L1387.390000,408.385000C1397.940000,418.938000,1397.930000,436.051000,1387.360000,446.592000L797.641000,1034.900000C787.074000,1045.450000,769.958000,1045.410000,759.431000,1034.830000Z" fill="url(#ex8ngrw9bjx10-fill)" stroke="none" stroke-width="1"/><path id="ex8ngrw9bjx11" d="M502.864000,784.033000L755.886000,1038.360000C768.363000,1050.900000,788.648000,1050.940000,801.172000,1038.440000L1390.890000,450.132000C1403.420000,437.639000,1403.430000,417.357000,1390.920000,404.850000L1319.620000,333.547000C1307.130000,321.055000,1286.870000,321.050000,1274.370000,333.536000L797.084000,810.363000C788.483000,818.956000,774.543000,818.943000,765.958000,810.335000L621.218000,665.199000C608.687000,652.634000,588.323000,652.666000,575.831000,665.270000L502.821000,738.938000C490.442000,751.428000,490.462000,771.566000,502.864000,784.033000Z" fill="none" stroke="rgb(0,0,0)" stroke-width="10" stroke-linejoin="round"/></g><rect id="ex8ngrw9bjx12" width="252" height="38" rx="11" ry="11" transform="matrix(0.69822000000000 -0.71588300000000 0.71588300000000 0.69822000000000 1309.99966896600017 715.40123544000085)" fill="rgb(255,255,255)" stroke="none" stroke-width="1"/><rect id="ex8ngrw9bjx13" width="37.607700" height="38" rx="11" ry="11" transform="matrix(0.69822000000000 -0.71588300000000 0.71588300000000 0.69822000000000 1272.99967500899993 752.92281906000062)" fill="rgb(255,255,255)" stroke="none" stroke-width="1"/></svg>